<svg width="129" height="86" viewBox="0 0 129 86" fill="none" xmlns="http://www.w3.org/2000/svg">
<rect width="129" height="86" fill="#9B9B9B"/>
<path d="M46.528 51.168C45.3653 51.168 44.4213 51.0933 43.696 50.944C42.9813 50.7947 42.448 50.544 42.096 50.192C41.744 49.84 41.568 49.3653 41.568 48.768V47.952C41.568 47.568 41.6907 47.2533 41.936 47.008C42.1813 46.7627 42.496 46.64 42.88 46.64H48.96C49.0453 46.64 49.088 46.592 49.088 46.496V45.936C49.088 45.8613 49.056 45.824 48.992 45.824H42.496C42.1867 45.824 41.9413 45.7387 41.76 45.568C41.5893 45.3973 41.504 45.1627 41.504 44.864C41.504 44.5653 41.5893 44.3307 41.76 44.16C41.9413 43.9893 42.1867 43.904 42.496 43.904H49.824C50.208 43.904 50.5227 44.032 50.768 44.288C51.0133 44.5333 51.136 44.8533 51.136 45.248V47.152C51.136 47.5147 51.024 47.808 50.8 48.032C50.576 48.256 50.288 48.368 49.936 48.368H43.792C43.6747 48.368 43.616 48.4213 43.616 48.528V48.752C43.616 48.9653 43.824 49.0987 44.24 49.152C44.656 49.216 45.3867 49.248 46.432 49.248C47.1147 49.248 47.7973 49.2213 48.48 49.168C49.1627 49.1147 49.7387 49.0347 50.208 48.928C50.3147 48.9067 50.416 48.896 50.512 48.896C50.736 48.896 50.9227 48.9653 51.072 49.104C51.232 49.232 51.3333 49.4133 51.376 49.648C51.3867 49.68 51.392 49.7493 51.392 49.856C51.392 50.08 51.3173 50.272 51.168 50.432C51.0187 50.6027 50.816 50.7147 50.56 50.768C50.048 50.8853 49.392 50.9813 48.592 51.056C47.8027 51.1307 47.1147 51.168 46.528 51.168ZM39.248 37.104C39.248 36.784 39.3387 36.5333 39.52 36.352C39.712 36.1707 39.9627 36.08 40.272 36.08H40.336C40.6453 36.08 40.8853 36.1707 41.056 36.352C41.2373 36.5333 41.328 36.784 41.328 37.104V37.68H44.768V37.104C44.768 36.784 44.8533 36.5333 45.024 36.352C45.2053 36.1707 45.4507 36.08 45.76 36.08H45.824C46.1333 36.08 46.3787 36.1707 46.56 36.352C46.752 36.5333 46.848 36.784 46.848 37.104V40.576C46.848 42.08 46.1387 42.832 44.72 42.832H41.536C40.8107 42.832 40.2453 42.64 39.84 42.256C39.4453 41.8613 39.248 41.3013 39.248 40.576V37.104ZM41.328 40.496C41.328 40.6667 41.3547 40.7787 41.408 40.832C41.472 40.8853 41.5947 40.912 41.776 40.912H44.32C44.5013 40.912 44.6187 40.8853 44.672 40.832C44.736 40.7787 44.768 40.6667 44.768 40.496V39.6H41.328V40.496ZM49.088 36.656C49.088 36.3573 49.184 36.1227 49.376 35.952C49.568 35.7813 49.8187 35.696 50.128 35.696H50.208C50.5173 35.696 50.768 35.7813 50.96 35.952C51.152 36.1227 51.248 36.3573 51.248 36.656V42.224C51.248 42.5227 51.152 42.7573 50.96 42.928C50.768 43.0987 50.5173 43.184 50.208 43.184H50.128C49.8187 43.184 49.568 43.0987 49.376 42.928C49.184 42.7573 49.088 42.5227 49.088 42.224V36.656ZM58.507 47.504C57.6643 47.504 56.9763 47.424 56.443 47.264C54.9177 46.8053 54.155 45.792 54.155 44.224V42.24C54.155 41.8453 54.2777 41.5253 54.523 41.28C54.7683 41.0347 55.083 40.912 55.467 40.912H59.467C59.5203 40.912 59.5683 40.896 59.611 40.864C59.6537 40.8213 59.675 40.7787 59.675 40.736V38.688C59.675 38.6347 59.6537 38.592 59.611 38.56C59.5683 38.5173 59.5203 38.496 59.467 38.496H55.035C54.7257 38.496 54.4803 38.4107 54.299 38.24C54.1283 38.0693 54.043 37.8347 54.043 37.536C54.043 37.2373 54.1283 37.0027 54.299 36.832C54.4803 36.6613 54.7257 36.576 55.035 36.576H60.523C60.907 36.576 61.2217 36.704 61.467 36.96C61.7123 37.2053 61.835 37.5253 61.835 37.92V41.424C61.835 41.8187 61.7123 42.1387 61.467 42.384C61.2217 42.6187 60.907 42.736 60.523 42.736H56.523C56.4697 42.736 56.4217 42.7573 56.379 42.8C56.3363 42.8427 56.315 42.8907 56.315 42.944V44.24C56.315 44.88 56.587 45.2747 57.131 45.424C57.4937 45.5307 57.9843 45.584 58.603 45.584C59.0617 45.584 59.5363 45.5413 60.027 45.456C60.5177 45.36 60.9443 45.2373 61.307 45.088C61.467 45.0347 61.595 45.008 61.691 45.008C61.947 45.008 62.1603 45.1093 62.331 45.312C62.5017 45.504 62.587 45.744 62.587 46.032C62.587 46.448 62.3257 46.7573 61.803 46.96C61.387 47.12 60.8697 47.2533 60.251 47.36C59.643 47.456 59.0617 47.504 58.507 47.504ZM63.979 36.656C63.979 36.3573 64.075 36.1227 64.267 35.952C64.459 35.7813 64.7097 35.696 65.019 35.696H65.099C65.4083 35.696 65.659 35.7813 65.851 35.952C66.043 36.1227 66.139 36.3573 66.139 36.656V50.064C66.139 50.3627 66.043 50.5973 65.851 50.768C65.659 50.9387 65.4083 51.024 65.099 51.024H65.019C64.7097 51.024 64.459 50.9387 64.267 50.768C64.075 50.5973 63.979 50.3627 63.979 50.064V36.656ZM71.654 49.52C70.6727 49.52 69.9473 49.2853 69.478 48.816C69.0087 48.336 68.774 47.6107 68.774 46.64V37.84C68.774 37.3067 68.8967 36.9333 69.142 36.72C69.3873 36.5067 69.8353 36.4 70.486 36.4H72.438C73.814 36.4 74.9873 36.6933 75.958 37.28C76.9073 37.856 77.6273 38.6347 78.118 39.616C78.6087 40.5973 78.854 41.7013 78.854 42.928C78.854 44.272 78.6087 45.44 78.118 46.432C77.638 47.424 76.9287 48.1867 75.99 48.72C75.062 49.2533 73.9473 49.52 72.646 49.52H71.654ZM70.934 46.704C70.934 47.0133 71.0033 47.2427 71.142 47.392C71.2913 47.5307 71.526 47.6 71.846 47.6H72.694C74.0167 47.6 75.014 47.1947 75.686 46.384C76.358 45.5733 76.694 44.4213 76.694 42.928C76.694 42.0107 76.5233 41.2053 76.182 40.512C75.8513 39.8187 75.3767 39.28 74.758 38.896C74.15 38.512 73.4353 38.32 72.614 38.32H71.334C71.0673 38.32 70.934 38.448 70.934 38.704V46.704ZM84.4868 49.648C83.2708 49.648 82.3321 49.2693 81.6708 48.512C81.0094 47.7547 80.6788 46.6773 80.6788 45.28V41.296C80.6788 40.9973 80.7748 40.7627 80.9668 40.592C81.1588 40.4213 81.4094 40.336 81.7188 40.336H81.7988C82.1081 40.336 82.3588 40.4213 82.5508 40.592C82.7428 40.7627 82.8388 40.9973 82.8388 41.296V45.008C82.8388 45.936 82.9988 46.624 83.3188 47.072C83.6494 47.5093 84.1454 47.728 84.8068 47.728C85.3934 47.728 85.8788 47.5307 86.2628 47.136C86.6468 46.7413 86.8601 46.1973 86.9028 45.504V41.296C86.9028 40.9973 86.9988 40.7627 87.1908 40.592C87.3828 40.4213 87.6334 40.336 87.9427 40.336H88.0228C88.3321 40.336 88.5828 40.4213 88.7748 40.592C88.9668 40.7627 89.0628 40.9973 89.0628 41.296V48.56C89.0628 48.8587 88.9668 49.0933 88.7748 49.264C88.5828 49.4347 88.3321 49.52 88.0228 49.52H87.9427C87.6441 49.52 87.3934 49.4453 87.1908 49.296C86.9988 49.136 86.9028 48.944 86.9028 48.72V48.704C86.2094 49.3333 85.4041 49.648 84.4868 49.648Z" fill="white"/>
</svg>
